<svg t="1588245319303" class="icon" viewBox="0 0 1024 1024" version="1.1" xmlns="http://www.w3.org/2000/svg" p-id="13976" width="200" height="200"><path d="M512 989.090909A477.090909 477.090909 0 1 1 855.970909 181.527273a34.676364 34.676364 0 0 1 0 49.338182 35.141818 35.141818 0 0 1-49.338182 0A403.549091 403.549091 0 0 0 512 104.727273 407.272727 407.272727 0 1 0 919.272727 512a421.469091 421.469091 0 0 0-3.490909-54.225455 34.909091 34.909091 0 1 1 69.818182-9.076363A477.323636 477.323636 0 0 1 512 989.090909z" fill="#00DBDE" p-id="13977"></path><path d="M925.789091 390.516364a35.141818 35.141818 0 0 1-32.814546-23.272728 387.956364 387.956364 0 0 0-19.083636-41.425454 34.909091 34.909091 0 1 1 62.138182-31.883637 437.061818 437.061818 0 0 1 23.272727 50.036364 34.909091 34.909091 0 0 1-20.247273 44.916364 33.978182 33.978182 0 0 1-13.265454 1.629091z" fill="#00DBDE" p-id="13978"></path><path d="M550.865455 733.090909m-33.047273 0l-0.232727 0q-33.047273 0-33.047273-33.047273l0-376.087272q0-33.047273 33.047273-33.047273l0.232727 0q33.047273 0 33.047273 33.047273l0 376.087272q0 33.047273-33.047273 33.047273Z" fill="#FC00FF" p-id="13979"></path><path d="M738.676364 478.72m0 33.047273l0 0.232727q0 33.047273-33.047273 33.047273l-376.087273 0q-33.047273 0-33.047273-33.047273l0-0.232727q0-33.047273 33.047273-33.047273l376.087273 0q33.047273 0 33.047273 33.047273Z" fill="#FC00FF" p-id="13980"></path></svg>