<svg t="1588245180246" class="icon" viewBox="0 0 1024 1024" version="1.1" xmlns="http://www.w3.org/2000/svg" p-id="11449" width="200" height="200"><path d="M547.4 894.1c-9 7-21.6 7-30.6 0-62.7-48.7-296.7-244.4-296.7-456.5 0-183.3 153.1-312.1 312-312 166.6 0.1 312 131.1 312 312 0.1 212.1-233.9 407.8-296.7 456.5z" fill="#B9F4E8" p-id="11450"></path><path d="M532.1 906.8c-7 0-14.1-2.3-19.9-6.8-29.6-22.9-105.7-85.3-173.1-168.1-83.9-103.2-126.5-202.2-126.5-294.3 0-88.1 35.1-169.8 98.7-230.2 59.9-56.8 140.3-89.3 220.7-89.3h0.1c42 0 83.1 8.1 121.9 23.9 38.1 15.6 72.4 37.9 101.8 66.4 61.8 59.8 95.8 141.3 95.8 229.2 0 92.1-42.6 191.1-126.5 294.3C657.7 814.8 581.6 877.1 552 900c-5.8 4.6-12.8 6.8-19.9 6.8z m-0.1-773.7c-76.6 0-153.2 31.1-210.3 85.2-60.7 57.5-94.1 135.4-94.1 219.3 0 206.6 224.9 397.1 293.8 450.6 6.3 4.9 15.1 4.9 21.4 0 68.9-53.5 293.8-243.9 293.8-450.6 0-170.7-133.8-304.5-304.5-304.5h-0.1z" fill="#20DAB4" p-id="11451"></path><path d="M532.1 590.9c-69 0-125-56-125-125s56-125 125-125 125 56 125 125c0 69.1-55.9 125-125 125z" fill="#75EAD3" p-id="11452"></path><path d="M532.1 598.4c-73.1 0-132.5-59.4-132.5-132.5S459 333.4 532.1 333.4s132.5 59.4 132.5 132.5-59.4 132.5-132.5 132.5z m0-250c-64.8 0-117.5 52.7-117.5 117.5s52.7 117.5 117.5 117.5 117.5-52.7 117.5-117.5-52.7-117.5-117.5-117.5z" fill="#20DAB4" p-id="11453"></path></svg>